<svg width="32" height="32" viewBox="0 0 32 32" fill="none" xmlns="http://www.w3.org/2000/svg">
<path fill-rule="evenodd" clip-rule="evenodd" d="M15.9993 5.33464C13.1704 5.33464 10.4573 6.45844 8.45688 8.45883C6.45649 10.4592 5.33268 13.1723 5.33268 16.0013C5.33268 18.8303 6.45649 21.5434 8.45688 23.5438C10.4573 25.5442 13.1704 26.668 15.9993 26.668C18.8283 26.668 21.5414 25.5442 23.5418 23.5438C25.5422 21.5434 26.666 18.8303 26.666 16.0013C26.666 13.1723 25.5422 10.4592 23.5418 8.45883C21.5414 6.45844 18.8283 5.33464 15.9993 5.33464ZM2.66602 16.0013C2.66602 8.6373 8.63535 2.66797 15.9993 2.66797C23.3633 2.66797 29.3327 8.6373 29.3327 16.0013C29.3327 23.3653 23.3633 29.3346 15.9993 29.3346C8.63535 29.3346 2.66602 23.3653 2.66602 16.0013ZM11.3327 13.3346C11.0727 13.3346 10.7407 13.5 10.5247 13.932C10.3646 14.2453 10.0872 14.4826 9.75291 14.5923C9.41861 14.702 9.05451 14.6751 8.73996 14.5174C8.42541 14.3598 8.18591 14.0842 8.07366 13.7508C7.96141 13.4174 7.9855 13.0531 8.14068 12.7373C8.72202 11.5746 9.88335 10.668 11.3327 10.668C12.782 10.668 13.942 11.5746 14.5247 12.7373C14.6799 13.0531 14.704 13.4174 14.5917 13.7508C14.4795 14.0842 14.24 14.3598 13.9254 14.5174C13.6109 14.6751 13.2468 14.702 12.9125 14.5923C12.5781 14.4826 12.3007 14.2453 12.1407 13.932C11.9247 13.5 11.594 13.3346 11.3327 13.3346ZM20.666 13.3346C20.406 13.3346 20.074 13.5 19.858 13.932C19.7804 14.0899 19.6723 14.2309 19.5399 14.3468C19.4076 14.4628 19.2536 14.5514 19.0868 14.6075C18.92 14.6637 18.7438 14.6862 18.5683 14.6739C18.3927 14.6617 18.2214 14.6147 18.064 14.5359C17.9067 14.4571 17.7666 14.3479 17.6516 14.2146C17.5367 14.0814 17.4493 13.9267 17.3945 13.7595C17.3396 13.5923 17.3184 13.4159 17.3321 13.2404C17.3457 13.065 17.394 12.894 17.474 12.7373C18.0567 11.5746 19.2167 10.668 20.666 10.668C22.1153 10.668 23.2753 11.5746 23.858 12.7373C24.0132 13.0531 24.0373 13.4174 23.925 13.7508C23.8128 14.0842 23.5733 14.3598 23.2587 14.5174C22.9442 14.6751 22.5801 14.702 22.2458 14.5923C21.9115 14.4826 21.6341 14.2453 21.474 13.932C21.258 13.5 20.9273 13.3346 20.666 13.3346ZM11.4713 19.1186C11.5872 18.9873 11.7279 18.88 11.8852 18.803C12.0425 18.726 12.2135 18.6807 12.3884 18.6698C12.5632 18.659 12.7385 18.6826 12.9042 18.7395C13.0699 18.7964 13.2227 18.8853 13.354 19.0013C14.0607 19.6253 14.9847 20.0013 15.9993 20.0013C17.014 20.0013 17.9393 19.6253 18.6447 19.0013C18.9099 18.7672 19.2572 18.6481 19.6103 18.6701C19.9634 18.6921 20.2932 18.8534 20.5273 19.1186C20.7614 19.3839 20.8806 19.7312 20.8586 20.0843C20.8366 20.4373 20.6752 20.7672 20.41 21.0013C19.1932 22.0777 17.624 22.6707 15.9993 22.668C14.3747 22.6707 12.8055 22.0777 11.5887 21.0013C11.4573 20.8854 11.35 20.7448 11.273 20.5874C11.196 20.4301 11.1508 20.2591 11.1399 20.0843C11.129 19.9094 11.1527 19.7342 11.2095 19.5685C11.2664 19.4028 11.3554 19.2499 11.4713 19.1186Z" fill="#0F766E"/>
</svg>
